<svg width="143" height="30" viewBox="0 0 143 30" fill="none" xmlns="http://www.w3.org/2000/svg">
<path d="M4.48499 29.117C3.28899 22.383 1.93699 15.844 0.428986 9.50001C0.870986 9.52601 1.53399 9.53901 2.41799 9.53901C3.27599 9.53901 3.91299 9.56501 4.32899 9.61701L4.91399 13.205C5.58999 17.677 6.33099 21.655 7.13699 25.139C8.41099 21.525 9.38599 18.548 10.062 16.208C10.764 13.868 11.336 11.632 11.778 9.50001C12.012 9.52601 12.623 9.51301 13.611 9.46101C14.521 9.40901 15.21 9.43501 15.678 9.53901L15.912 10.826C16.354 13.062 16.809 15.181 17.277 17.183C17.771 19.159 18.525 21.72 19.539 24.866C20.163 22.474 20.813 19.51 21.489 15.974C21.593 15.532 21.801 14.57 22.113 13.088C22.425 11.58 22.698 10.41 22.932 9.57801C23.868 9.52601 24.635 9.50001 25.233 9.50001C25.805 9.50001 26.26 9.51301 26.598 9.53901C25.974 11.671 25.441 13.608 24.999 15.35C24.583 17.066 24.206 18.678 23.868 20.186C23.764 20.602 23.517 21.655 23.127 23.345C22.763 25.009 22.295 26.907 21.723 29.039C21.125 29.169 20.579 29.208 20.085 29.156L17.316 29.117C16.146 24.515 14.872 19.991 13.494 15.545C12.48 18.821 11.869 20.823 11.661 21.551C10.751 24.749 9.98399 27.258 9.35999 29.078C8.99599 29.13 8.35899 29.156 7.44899 29.156L4.48499 29.117Z" fill="#333333"/>
<path d="M31.5361 5.67801V11.567C32.2381 10.969 32.8491 10.527 33.3691 10.241C33.9151 9.92901 34.7081 9.73401 35.7481 9.65601C36.3721 9.57801 36.9571 9.53901 37.5031 9.53901C39.4011 9.53901 40.8831 9.99401 41.9491 10.904C42.2871 11.19 42.5211 11.866 42.6511 12.932C42.7811 13.998 42.8461 15.402 42.8461 17.144C42.8461 18.132 42.8201 19.692 42.7681 21.824C42.7161 23.904 42.6901 25.386 42.6901 26.27C42.6901 26.998 42.7161 27.882 42.7681 28.922C41.7281 29.078 40.6101 29.13 39.4141 29.078C39.3621 28.298 39.3361 27.622 39.3361 27.05V17.066C39.2841 15.402 38.8941 14.323 38.1661 13.829C38.0101 13.725 37.6981 13.621 37.2301 13.517C36.6841 13.361 36.1251 13.283 35.5531 13.283C34.5391 13.283 33.6681 13.543 32.9401 14.063C32.2381 14.557 31.7831 15.337 31.5751 16.403C31.3931 17.391 31.3021 18.574 31.3021 19.952L31.3411 21.278C31.3931 22.994 31.4191 24.411 31.4191 25.529C31.4191 26.933 31.3931 28.012 31.3411 28.766V28.922C30.8211 29.052 30.4051 29.117 30.0931 29.117L28.9231 29.078C28.5591 29.078 28.2601 29.091 28.0261 29.117C28.0261 26.127 28.0131 23.657 27.9871 21.707L27.9481 9.77301C27.9481 6.86101 27.9741 3.87101 28.0261 0.803009C28.8321 0.88101 29.4821 0.90701 29.9761 0.88101C30.1061 0.88101 30.2621 0.86801 30.4441 0.842009C30.6521 0.816009 30.8601 0.803009 31.0681 0.803009C31.3281 0.803009 31.4581 0.842009 31.4581 0.92001C31.5101 1.15401 31.5361 2.74001 31.5361 5.67801Z" fill="#333333"/>
<path d="M57.4025 9.50001C57.4025 9.44801 57.5715 9.42201 57.9095 9.42201C58.5075 9.39601 59.2745 9.42201 60.2105 9.50001L61.2245 9.57801C61.2765 9.99401 61.3025 10.306 61.3025 10.514V10.904C61.2765 11.502 61.2635 12.399 61.2635 13.595C61.2635 14.583 61.2895 16.039 61.3415 17.963L61.3805 22.331C61.3805 24.203 61.3285 25.906 61.2245 27.44C61.2245 27.518 61.2245 27.687 61.2245 27.947C61.2245 28.207 61.1985 28.441 61.1465 28.649C61.0945 28.857 60.9515 28.987 60.7175 29.039H60.0545L58.8065 29C58.5985 29 58.4165 29.013 58.2605 29.039C58.1045 29.065 57.9615 29.078 57.8315 29.078C57.5715 29 57.4415 28.714 57.4415 28.22C57.4155 28.012 57.4155 27.778 57.4415 27.518C57.4935 27.258 57.5195 27.037 57.5195 26.855C56.8955 27.713 55.9075 28.298 54.5555 28.61C53.2035 28.922 51.8775 29.078 50.5775 29.078C49.3295 29.078 48.2635 28.532 47.3795 27.44C46.5215 26.322 45.8845 24.957 45.4685 23.345C45.0525 21.733 44.8445 20.16 44.8445 18.626C44.8445 16.936 45.1305 15.415 45.7025 14.063C46.2745 12.711 47.0545 11.645 48.0425 10.865C49.0565 10.059 50.1745 9.64301 51.3965 9.61701L52.6445 9.57801C53.8145 9.57801 54.7765 9.72101 55.5305 10.007C56.3105 10.267 56.8825 10.761 57.2465 11.489C57.2465 11.255 57.2725 10.956 57.3245 10.592C57.3765 10.072 57.4025 9.70801 57.4025 9.50001ZM56.1545 13.478C55.6605 13.192 54.7895 13.01 53.5415 12.932C52.1895 12.906 51.0455 13.257 50.1095 13.985C49.1995 14.687 48.6405 15.532 48.4325 16.52C48.2245 17.274 48.1205 18.288 48.1205 19.562C48.2505 23.748 49.9405 25.75 53.1905 25.568C54.5165 25.568 55.4785 25.334 56.0765 24.866C56.6745 24.398 57.0385 23.735 57.1685 22.877C57.3245 22.019 57.4025 20.732 57.4025 19.016C57.4025 17.144 57.3245 15.831 57.1685 15.077C57.0125 14.297 56.6745 13.764 56.1545 13.478Z" fill="#333333"/>
<path d="M70.1004 2.32401C70.3864 2.32401 70.5943 2.31101 70.7243 2.28501V8.25201L70.7634 10.436C72.4534 10.384 74.5464 10.293 77.0424 10.163C77.1984 10.371 77.2764 10.761 77.2764 11.333L77.2374 12.23C77.1854 12.802 77.1724 13.218 77.1984 13.478C74.3644 13.478 72.2454 13.465 70.8414 13.439V20.732C70.8414 21.902 70.8673 22.734 70.9193 23.228C70.9713 23.722 71.0754 24.151 71.2314 24.515C71.6474 25.035 72.4794 25.36 73.7274 25.49C75.0014 25.62 76.1584 25.659 77.1984 25.607C77.3284 26.647 77.3934 27.31 77.3934 27.596C77.3934 28.064 77.3284 28.532 77.1984 29C76.6524 29.026 75.7944 29.039 74.6244 29.039C72.5964 29.039 71.0104 28.792 69.8664 28.298C68.7224 27.804 67.9944 26.816 67.6824 25.334C67.3964 22.812 67.2533 19.523 67.2533 15.467V13.595C67.0973 13.621 66.7074 13.634 66.0834 13.634L63.1194 13.595L63.2364 10.397C63.8084 10.449 65.1734 10.475 67.3314 10.475L67.2924 6.38001V4.54701C67.2924 3.45501 67.3184 2.68801 67.3704 2.24601C67.7344 2.22001 68.2934 2.23301 69.0474 2.28501L70.1004 2.32401Z" fill="#333333"/>
<path d="M75.9915 4.23501C75.9655 3.40301 75.9525 2.50601 75.9525 1.54401C77.4865 1.54401 78.6305 1.53101 79.3845 1.50501L83.0115 1.46601C86.8075 1.46601 89.9405 1.60901 92.4105 1.89501C92.4365 2.12901 92.4495 2.53201 92.4495 3.10401C92.4495 3.98801 92.3845 4.92401 92.2545 5.91201C91.6825 5.80801 90.8765 5.76901 89.8365 5.79501C89.0045 5.84701 88.1725 5.87301 87.3405 5.87301H86.3265C86.3785 6.02901 86.3785 6.18501 86.3265 6.34101C86.3005 6.49701 86.2875 8.25201 86.2875 11.606C86.2875 12.412 86.3005 13.075 86.3265 13.595C86.4045 20.459 86.4825 25.49 86.5605 28.688V28.766C86.0925 28.844 85.3775 28.883 84.4155 28.883C83.4015 28.883 82.6345 28.935 82.1145 29.039C82.0885 28.935 82.0755 28.766 82.0755 28.532C82.1015 28.272 82.1145 27.986 82.1145 27.674V25.295C82.1405 24.775 82.1535 23.839 82.1535 22.487C82.1535 20.953 82.1405 19.718 82.1145 18.782C82.0625 15.064 81.9715 10.878 81.8415 6.22401V6.06801C81.2955 5.91201 79.8525 5.80801 77.5125 5.75601C76.6805 5.75601 76.2255 5.74301 76.1475 5.71701C76.0695 5.56101 76.0175 5.06701 75.9915 4.23501Z" fill="#333333"/>
<path d="M91.7728 18.431C91.7728 17.469 91.7468 16.767 91.6948 16.325C91.6948 15.363 91.7338 14.531 91.8118 13.829C91.9158 13.127 92.1498 12.256 92.5138 11.216C92.8518 10.462 93.5668 9.90301 94.6588 9.53901C95.7768 9.14901 97.0118 8.95401 98.3638 8.95401C98.5458 8.98001 98.8058 8.99301 99.1438 8.99301L100.704 8.95401C102.888 8.95401 104.565 9.52601 105.735 10.67C106.203 10.982 106.554 11.567 106.788 12.425C107.048 13.283 107.204 14.44 107.256 15.896C107.308 17.326 107.334 18.158 107.334 18.392C107.23 20.992 107.1 23.059 106.944 24.593C106.814 26.127 106.528 27.115 106.086 27.557C105.592 28.259 104.903 28.74 104.019 29C103.161 29.26 102.134 29.39 100.938 29.39C100.47 29.39 99.7678 29.364 98.8318 29.312L97.0378 29.273C95.5038 29.013 94.3468 28.454 93.5668 27.596C92.8128 26.738 92.3188 25.737 92.0848 24.593C91.8768 23.449 91.7728 22.071 91.7728 20.459V18.431ZM103.161 14.18C102.537 13.14 101.367 12.62 99.6508 12.62C97.8828 12.62 96.6088 13.075 95.8288 13.985C95.4908 14.401 95.2698 14.934 95.1658 15.584C95.0878 16.208 95.0618 17.027 95.0878 18.041C95.0618 18.431 95.0618 18.951 95.0878 19.601C95.1398 20.251 95.1658 20.758 95.1658 21.122L95.2438 22.76C95.3218 23.8 95.6078 24.541 96.1018 24.983C96.6218 25.399 97.2718 25.685 98.0518 25.841C98.5718 25.919 99.1048 25.958 99.6508 25.958C100.665 25.958 101.549 25.776 102.303 25.412C103.057 25.048 103.538 24.45 103.746 23.618C103.85 22.942 103.902 22.409 103.902 22.019C104.032 20.199 104.097 18.964 104.097 18.314C104.097 16.598 103.785 15.22 103.161 14.18Z" fill="#333333"/>
<path d="M121.305 3.37701C121.305 2.77901 121.318 2.35001 121.344 2.09001V1.66101C121.396 1.53101 122.02 1.46601 123.216 1.46601C123.892 1.46601 124.399 1.49201 124.737 1.54401V4.11801C124.737 6.58801 124.789 10.189 124.893 14.921C124.919 16.091 124.945 17.495 124.971 19.133C124.997 20.745 125.01 22.591 125.01 24.671C125.01 26.595 124.997 28.025 124.971 28.961C124.139 29.013 123.45 29.039 122.904 29.039C122.202 29.039 121.682 29.013 121.344 28.961C121.318 28.909 121.305 28.636 121.305 28.142C121.305 27.466 121.24 26.946 121.11 26.582C120.928 26.998 120.616 27.414 120.174 27.83C119.758 28.246 119.329 28.493 118.887 28.571C118.185 28.805 117.405 28.922 116.547 28.922C116.131 28.922 115.819 28.909 115.611 28.883C113.765 28.753 112.374 28.181 111.438 27.167C110.502 26.127 109.878 24.866 109.566 23.384C109.28 21.876 109.111 20.043 109.059 17.885C109.059 15.701 109.345 13.907 109.917 12.503C110.515 11.073 111.542 10.163 112.998 9.77301C113.96 9.51301 115.052 9.38301 116.274 9.38301C117.262 9.38301 118.029 9.44801 118.575 9.57801C119.095 9.65601 119.563 9.83801 119.979 10.124C120.395 10.384 120.72 10.67 120.954 10.982C121.188 11.268 121.318 11.476 121.344 11.606L121.305 8.29101C121.305 7.61501 121.292 7.01701 121.266 6.49701C121.266 5.95101 121.279 5.52201 121.305 5.21001C121.331 5.08001 121.331 4.92401 121.305 4.74201C121.305 4.53401 121.305 4.35201 121.305 4.19601V3.37701ZM120.018 13.166C119.498 12.646 118.679 12.36 117.561 12.308L116.82 12.269C115.416 12.269 114.337 12.62 113.583 13.322C112.829 13.998 112.4 15.064 112.296 16.52C112.218 17.092 112.179 17.95 112.179 19.094C112.231 20.81 112.439 22.149 112.803 23.111C113.193 24.047 113.713 24.71 114.363 25.1C115.039 25.464 115.923 25.646 117.015 25.646C118.263 25.646 119.199 25.36 119.823 24.788C120.447 24.19 120.85 23.41 121.032 22.448C121.214 21.486 121.305 20.225 121.305 18.665C121.279 17.183 121.188 16.026 121.032 15.194C120.902 14.362 120.564 13.686 120.018 13.166Z" fill="#333333"/>
<path d="M127.307 18.431C127.307 17.469 127.281 16.767 127.229 16.325C127.229 15.363 127.268 14.531 127.346 13.829C127.45 13.127 127.684 12.256 128.048 11.216C128.386 10.462 129.101 9.90301 130.193 9.53901C131.311 9.14901 132.546 8.95401 133.898 8.95401C134.08 8.98001 134.34 8.99301 134.678 8.99301L136.238 8.95401C138.422 8.95401 140.099 9.52601 141.269 10.67C141.737 10.982 142.088 11.567 142.322 12.425C142.582 13.283 142.738 14.44 142.79 15.896C142.842 17.326 142.868 18.158 142.868 18.392C142.764 20.992 142.634 23.059 142.478 24.593C142.348 26.127 142.062 27.115 141.62 27.557C141.126 28.259 140.437 28.74 139.553 29C138.695 29.26 137.668 29.39 136.472 29.39C136.004 29.39 135.302 29.364 134.366 29.312L132.572 29.273C131.038 29.013 129.881 28.454 129.101 27.596C128.347 26.738 127.853 25.737 127.619 24.593C127.411 23.449 127.307 22.071 127.307 20.459V18.431ZM138.695 14.18C138.071 13.14 136.901 12.62 135.185 12.62C133.417 12.62 132.143 13.075 131.363 13.985C131.025 14.401 130.804 14.934 130.7 15.584C130.622 16.208 130.596 17.027 130.622 18.041C130.596 18.431 130.596 18.951 130.622 19.601C130.674 20.251 130.7 20.758 130.7 21.122L130.778 22.76C130.856 23.8 131.142 24.541 131.636 24.983C132.156 25.399 132.806 25.685 133.586 25.841C134.106 25.919 134.639 25.958 135.185 25.958C136.199 25.958 137.083 25.776 137.837 25.412C138.591 25.048 139.072 24.45 139.28 23.618C139.384 22.942 139.436 22.409 139.436 22.019C139.566 20.199 139.631 18.964 139.631 18.314C139.631 16.598 139.319 15.22 138.695 14.18Z" fill="#333333"/>
</svg>
